<?xml version="1.0" standalone="no"?>
<!DOCTYPE svg PUBLIC "-//W3C//DTD SVG 20010904//EN"
 "http://www.w3.org/TR/2001/REC-SVG-20010904/DTD/svg10.dtd">
<svg version="1.0" xmlns="http://www.w3.org/2000/svg"
 width="1216.000000pt" height="1216.000000pt" viewBox="0 0 1216.000000 1216.000000"
 preserveAspectRatio="xMidYMid meet">
<metadata>
Created by potrace 1.11, written by Peter Selinger 2001-2013
</metadata>
<g transform="translate(0.000000,1216.000000) scale(0.100000,-0.100000)"
fill="#000000" stroke="none">
<path d="M7610 11730 c0 -6 -27 -10 -60 -10 -53 0 -60 -2 -60 -20 0 -21 -33
-29 -45 -10 -8 13 -52 13 -57 1 -1 -6 -24 -11 -50 -12 -26 -2 -45 -6 -42 -11
3 -4 -29 -8 -70 -8 -44 0 -76 -4 -76 -10 0 -5 -18 -10 -40 -10 -33 0 -40 -3
-40 -20 0 -11 -4 -20 -10 -20 -5 0 -10 5 -10 10 0 6 -9 10 -20 10 -11 0 -20
-4 -20 -10 0 -5 -9 -10 -20 -10 -11 0 -20 -4 -20 -10 0 -6 -27 -10 -60 -10
-55 0 -79 -12 -47 -23 7 -2 8 -8 3 -13 -5 -5 -11 -4 -13 4 -8 21 -43 14 -43
-8 0 -11 -4 -20 -10 -20 -5 0 -10 5 -10 10 0 6 -9 10 -20 10 -11 0 -20 -4 -20
-10 0 -5 -9 -10 -20 -10 -11 0 -20 -4 -20 -10 0 -5 -18 -10 -40 -10 -22 0 -40
-4 -40 -10 0 -5 -9 -10 -20 -10 -13 0 -20 -7 -20 -20 0 -11 -4 -20 -10 -20 -5
0 -10 5 -10 10 0 21 -33 9 -63 -22 -19 -21 -32 -28 -34 -20 -5 14 -43 17 -43
2 0 -5 -9 -10 -20 -10 -11 0 -20 -4 -20 -10 0 -5 -7 -10 -16 -10 -9 0 -24 -9
-34 -20 -10 -11 -29 -21 -43 -22 -14 -1 -23 -6 -21 -10 3 -4 -6 -8 -20 -8 -14
0 -26 -4 -26 -10 0 -5 -8 -10 -18 -10 -10 0 -24 -9 -32 -20 -8 -12 -26 -20
-42 -20 -15 0 -28 -4 -28 -10 0 -5 -7 -10 -16 -10 -8 0 -33 -19 -55 -41 -29
-30 -43 -39 -51 -31 -13 13 -38 -8 -38 -32 0 -19 -16 -21 -23 -3 -3 8 -11 5
-24 -10 -11 -13 -28 -23 -37 -23 -9 0 -16 -4 -16 -10 0 -5 -7 -10 -15 -10 -20
0 -65 -45 -65 -65 0 -18 -17 -20 -23 -2 -6 18 -37 -10 -37 -34 0 -21 -16 -26
-23 -6 -3 8 -11 5 -24 -10 -11 -13 -26 -23 -33 -23 -6 0 -25 -13 -40 -30 -15
-16 -35 -30 -44 -30 -9 0 -16 -8 -16 -20 0 -16 -7 -20 -30 -20 -23 0 -30 -4
-30 -20 0 -11 -4 -20 -10 -20 -5 0 -10 -9 -10 -20 0 -22 -16 -27 -22 -8 -3 8
-26 -9 -56 -40 -28 -28 -56 -52 -62 -52 -6 0 -57 -46 -113 -102 -56 -57 -105
-102 -109 -100 -11 3 -98 -84 -98 -98 0 -6 -40 -51 -90 -100 -66 -66 -90 -96
-90 -115 0 -16 -6 -25 -15 -25 -21 0 -93 -72 -77 -78 17 -5 15 -22 -3 -22 -19
0 -125 -104 -125 -123 0 -7 -9 -19 -20 -27 -11 -8 -20 -21 -20 -30 0 -9 -9
-22 -20 -30 -11 -8 -20 -22 -20 -32 0 -10 -4 -18 -10 -18 -5 0 -10 -13 -10
-30 0 -16 -4 -30 -10 -30 -5 0 -10 5 -10 10 0 6 -4 10 -10 10 -5 0 -10 -9 -10
-20 0 -11 -4 -20 -10 -20 -5 0 -10 -7 -10 -16 0 -9 -10 -26 -22 -37 -16 -13
-19 -21 -10 -24 19 -7 14 -23 -8 -23 -13 0 -20 -7 -20 -20 0 -11 -4 -20 -10
-20 -5 0 -10 -7 -10 -16 0 -9 -13 -29 -30 -44 -16 -15 -30 -35 -30 -44 0 -9
-4 -16 -10 -16 -5 0 -10 -13 -10 -30 0 -16 -4 -30 -10 -30 -5 0 -10 -13 -10
-30 0 -21 -5 -30 -16 -30 -23 0 -44 -25 -44 -54 0 -14 -4 -26 -10 -26 -5 0
-10 -8 -10 -18 0 -10 -9 -24 -20 -32 -11 -8 -20 -22 -20 -32 0 -9 -4 -20 -10
-23 -5 -3 -10 -22 -10 -41 0 -19 -4 -34 -10 -34 -5 0 -10 -8 -10 -18 0 -10 -9
-24 -20 -32 -12 -8 -20 -26 -20 -42 0 -15 -4 -28 -10 -28 -5 0 -10 -17 -10
-38 0 -26 -6 -42 -20 -52 -11 -8 -20 -22 -20 -32 0 -10 -4 -18 -10 -18 -5 0
-10 -12 -10 -26 0 -14 -4 -23 -10 -19 -14 9 -12 -8 2 -24 10 -11 10 -13 1 -7
-9 5 -13 -1 -13 -18 0 -14 -4 -26 -10 -26 -5 0 -10 -13 -10 -30 0 -16 -4 -30
-10 -30 -5 0 -10 -9 -10 -20 0 -11 -4 -20 -10 -20 -15 0 -12 -58 3 -63 7 -2 8
-8 3 -13 -5 -5 -11 -4 -13 4 -11 29 -23 8 -23 -38 0 -27 -4 -50 -10 -50 -5 0
-10 -13 -10 -30 0 -16 -4 -30 -10 -30 -14 0 -12 -38 2 -42 10 -4 8 -9 -3 -21
-9 -9 -19 -13 -23 -10 -3 4 -6 -10 -6 -30 0 -20 -4 -37 -10 -37 -6 0 -10 -37
-10 -90 0 -53 -4 -90 -10 -90 -5 0 -10 -13 -10 -30 0 -16 -4 -30 -10 -30 -5 0
-10 -22 -10 -50 0 -33 4 -50 13 -50 8 0 7 -4 -3 -10 -10 -6 -11 -10 -2 -10 6
0 12 -9 12 -20 0 -13 -7 -20 -20 -20 -20 0 -20 -7 -20 -649 0 -409 -4 -651
-10 -653 -5 -2 -10 -80 -10 -190 -1 -107 -6 -188 -11 -188 -5 0 -9 -18 -9 -40
0 -22 -4 -40 -10 -40 -5 0 -10 -9 -10 -20 0 -11 5 -20 10 -20 6 0 10 -9 10
-20 0 -13 -7 -20 -20 -20 -16 0 -20 -7 -20 -30 0 -16 -4 -30 -10 -30 -5 0 -10
-22 -10 -50 0 -27 -4 -50 -10 -50 -5 0 -10 -13 -10 -30 0 -16 -4 -30 -10 -30
-5 0 -10 -9 -10 -20 0 -11 -4 -20 -10 -20 -15 0 -12 -58 3 -63 7 -2 8 -8 3
-13 -5 -5 -11 -4 -13 4 -11 29 -23 8 -23 -38 0 -27 -4 -50 -10 -50 -5 0 -10
-13 -10 -28 0 -16 -8 -34 -20 -42 -12 -8 -20 -26 -20 -42 0 -15 -4 -28 -10
-28 -5 0 -10 -13 -10 -28 0 -16 -8 -34 -20 -42 -11 -8 -20 -22 -20 -32 0 -10
-4 -18 -10 -18 -5 0 -10 -9 -10 -20 0 -11 -4 -20 -10 -20 -5 0 -10 -7 -10 -16
0 -9 -13 -29 -30 -44 -16 -15 -30 -34 -30 -42 0 -7 -9 -20 -20 -28 -11 -8 -20
-21 -20 -28 0 -8 -13 -27 -30 -42 -16 -15 -30 -33 -30 -40 0 -6 -18 -29 -40
-50 -22 -21 -40 -48 -40 -60 0 -23 -21 -50 -40 -50 -17 0 -40 -26 -40 -44 0
-9 -7 -16 -16 -16 -8 0 -12 -4 -9 -10 3 -5 -1 -10 -10 -10 -19 0 -45 -23 -45
-40 0 -15 -25 -40 -40 -40 -15 0 -40 -25 -40 -40 0 -15 -25 -40 -40 -40 -15 0
-40 -25 -40 -40 0 -15 -25 -40 -40 -40 -15 0 -40 -25 -40 -40 0 -15 -25 -40
-40 -40 -15 0 -40 -25 -40 -40 0 -15 -25 -40 -40 -40 -15 0 -40 -25 -40 -40 0
-18 -27 -40 -50 -40 -23 0 -53 -24 -43 -34 4 -3 1 -6 -6 -6 -7 0 -9 -5 -5 -12
4 -7 3 -8 -4 -4 -7 4 -298 -280 -717 -699 -388 -388 -710 -705 -716 -705 -15
0 -43 -30 -35 -38 4 -3 11 0 16 8 5 8 12 11 17 7 10 -10 -18 -28 -35 -22 -13
5 -162 -137 -162 -155 0 -14 46 -60 60 -60 6 0 123 -112 260 -250 194 -194
255 -250 275 -250 16 0 25 -6 25 -16 0 -18 17 -37 43 -47 9 -3 17 -11 17 -17
0 -14 66 -80 80 -80 5 0 496 486 1090 1080 594 594 1087 1080 1095 1080 8 0
15 5 15 10 0 6 9 10 20 10 11 0 20 5 20 10 0 6 9 10 20 10 18 0 24 9 18 26 -2
4 7 10 20 15 12 5 22 15 22 24 0 8 5 15 10 15 6 0 10 -4 10 -9 0 -6 9 -9 20
-8 11 1 20 7 20 15 0 7 18 31 40 52 22 21 40 46 40 54 0 9 7 16 15 16 24 0 65
46 65 74 0 16 7 27 20 31 11 4 32 17 45 31 13 13 31 24 40 24 8 0 15 5 15 10
0 6 18 10 40 10 38 0 54 13 28 23 -8 2 -9 8 -4 13 5 5 11 4 13 -3 8 -22 43
-15 43 7 0 11 5 20 10 20 6 0 10 -4 10 -10 0 -5 9 -10 20 -10 11 0 20 5 20 10
0 6 14 10 30 10 17 0 30 5 30 10 0 6 30 10 70 10 67 0 76 4 71 33 0 4 3 7 9 7
5 0 10 -4 10 -10 0 -5 14 -10 30 -10 23 0 30 4 30 20 0 11 5 20 10 20 6 0 10
-4 10 -10 0 -5 9 -10 20 -10 11 0 20 5 20 10 0 6 14 10 30 10 17 0 30 5 30 10
0 6 14 10 30 10 27 0 35 9 31 34 -1 5 5 4 14 -4 13 -11 18 -9 34 9 10 11 30
21 45 21 14 0 26 5 26 10 0 6 83 10 230 10 133 0 230 4 230 9 0 5 -6 11 -12
14 -8 2 -9 8 -4 13 5 5 11 4 13 -3 4 -10 142 -13 644 -13 632 0 639 0 639 20
0 16 7 20 34 20 19 0 38 -4 41 -10 3 -5 24 -10 46 -10 21 0 39 5 39 10 0 6 23
10 50 10 28 0 50 5 50 10 0 6 33 10 80 10 47 0 80 4 80 10 0 6 18 10 40 10 33
0 40 3 40 20 0 11 5 20 10 20 6 0 10 -4 10 -10 0 -5 9 -10 20 -10 11 0 20 5
20 10 0 6 14 10 30 10 17 0 30 5 30 10 0 6 18 10 40 10 33 0 40 3 40 20 0 11
5 20 10 20 6 0 10 -4 10 -10 0 -5 9 -10 20 -10 13 0 20 7 20 20 0 11 5 20 10
20 6 0 10 -4 10 -10 0 -18 32 -10 52 12 16 19 21 20 29 8 8 -11 12 -12 16 -2
2 7 22 12 44 12 37 0 53 13 27 23 -8 2 -9 8 -4 13 5 5 11 4 13 -3 5 -15 43
-17 43 -3 0 6 9 10 20 10 11 0 20 5 20 10 0 6 9 10 20 10 11 0 20 5 20 10 0 6
14 10 30 10 17 0 30 5 30 10 0 6 13 10 28 10 16 0 34 8 42 20 8 11 22 20 32
20 10 0 18 5 18 10 0 6 18 10 40 10 38 0 54 13 28 23 -8 2 -9 8 -4 13 5 5 11
4 13 -3 7 -20 37 -15 53 7 8 11 22 20 32 20 10 0 18 5 18 10 0 6 14 10 30 10
17 0 30 5 30 10 0 6 9 10 20 10 11 0 20 5 20 10 0 6 -4 10 -10 10 -5 0 -10 5
-10 10 0 6 14 10 30 10 17 0 30 5 30 10 0 6 14 10 30 10 17 0 30 5 30 10 0 6
9 10 20 10 18 0 25 11 21 33 -1 5 3 6 8 3 5 -4 16 1 24 9 9 8 26 15 39 15 13
0 30 9 38 20 8 11 21 20 28 20 8 0 26 12 41 28 25 26 41 34 69 35 9 0 9 4 2
11 -17 17 -11 26 20 26 17 0 30 5 30 10 0 6 7 10 16 10 9 0 29 14 44 30 15 17
35 30 44 30 9 0 16 5 16 10 0 6 7 10 15 10 20 0 125 105 125 125 0 18 17 20
22 3 6 -16 78 56 78 77 0 9 9 15 25 15 19 0 49 24 115 90 49 49 94 90 100 90
17 0 105 93 92 98 -17 5 -15 22 3 22 17 0 205 184 205 201 0 5 23 33 51 60 28
28 48 53 45 57 -4 3 -11 0 -16 -8 -5 -8 -12 -11 -16 -8 -8 8 20 38 36 38 16 0
60 47 60 65 0 8 5 14 11 12 6 -1 16 7 22 18 7 11 24 31 40 46 15 15 27 34 27
43 0 9 5 16 10 16 6 0 10 8 10 18 0 10 9 24 20 32 11 8 20 20 20 28 0 7 5 10
10 7 6 -3 10 -1 10 4 0 6 -4 11 -10 11 -5 0 -10 5 -10 10 0 6 7 10 15 10 20 0
65 45 65 65 0 8 5 15 10 15 6 0 10 9 10 20 0 11 5 20 10 20 6 0 10 11 10 25 0
15 7 28 18 32 26 10 40 27 44 54 1 13 11 31 21 40 9 9 17 24 17 33 0 9 5 16
10 16 6 0 10 9 10 19 0 11 6 22 13 25 10 5 10 7 0 12 -20 9 -15 24 7 24 13 0
20 7 20 18 0 10 9 24 20 32 11 8 20 26 20 41 0 15 6 30 13 32 9 4 9 8 -2 15
-12 9 -9 16 20 43 21 20 29 34 22 36 -20 7 -15 23 7 23 13 0 20 7 20 20 0 11
-4 20 -10 20 -5 0 -10 5 -10 10 0 6 9 10 20 10 13 0 20 7 20 20 0 11 5 20 10
20 6 0 10 13 10 29 0 16 6 32 13 35 10 5 10 7 0 12 -20 9 -15 24 7 24 13 0 20
7 20 20 0 11 5 20 10 20 6 0 10 23 10 50 0 28 5 50 10 50 6 0 10 9 10 20 0 11
5 20 10 20 6 0 10 9 10 20 0 11 5 20 10 20 15 0 12 58 -2 63 -7 2 -10 8 -6 12
4 4 14 3 21 -3 11 -10 14 -1 16 46 1 31 6 59 12 60 5 2 9 17 9 33 0 16 5 29
10 29 6 0 10 14 10 30 0 17 -4 30 -10 30 -5 0 -10 5 -10 10 0 6 9 10 20 10 17
0 20 7 20 40 0 22 5 40 10 40 6 0 10 37 10 90 0 53 4 90 10 90 6 0 10 30 10
70 0 42 4 70 10 70 6 0 10 17 8 39 -1 22 -5 38 -10 35 -4 -3 -8 14 -8 37 0 23
3 40 6 36 4 -3 13 0 20 8 11 11 14 66 14 277 0 252 -1 264 -20 276 -21 13 -29
72 -10 72 6 0 10 18 10 40 0 22 -4 40 -10 40 -5 0 -10 23 -10 50 0 28 -4 50
-10 50 -6 0 -10 37 -10 90 0 80 -10 114 -23 78 -2 -8 -8 -9 -13 -4 -5 5 -4 11
4 13 6 3 12 18 12 34 0 22 -5 29 -20 29 -11 0 -20 5 -20 10 0 6 5 10 10 10 6
0 10 9 10 20 0 11 -4 20 -10 20 -5 0 -10 14 -10 30 0 17 -4 30 -10 30 -5 0
-10 7 -10 16 0 9 -5 12 -12 8 -10 -6 -10 -4 0 7 14 16 16 49 2 49 -5 0 -10 14
-10 30 0 23 -4 30 -20 30 -22 0 -27 15 -7 24 10 5 10 7 0 12 -7 3 -13 14 -13
25 0 10 -4 19 -10 19 -5 0 -10 16 -10 36 0 38 -18 64 -44 64 -19 0 -21 16 -3
24 10 5 10 7 0 12 -7 3 -13 14 -13 25 0 10 -4 19 -10 19 -5 0 -10 9 -10 20 0
13 -7 20 -20 20 -11 0 -20 5 -20 10 0 6 5 10 10 10 6 0 10 5 10 10 0 6 -9 10
-20 10 -22 0 -27 15 -7 24 10 5 10 7 0 12 -7 3 -13 14 -13 25 0 12 -7 19 -20
19 -22 0 -27 15 -7 24 10 5 10 7 0 12 -7 3 -13 15 -13 26 0 16 -3 18 -13 9
-17 -14 -27 -4 -27 26 0 13 -4 23 -10 23 -5 0 -10 7 -10 16 0 20 -24 44 -44
44 -19 0 -21 16 -3 23 8 3 5 11 -10 24 -13 11 -23 26 -23 33 0 15 -50 60 -67
60 -7 0 -13 12 -13 26 0 29 -31 67 -38 46 -6 -19 -22 -14 -22 8 0 12 -7 20
-16 20 -8 0 -23 7 -31 16 -13 13 -14 17 -3 24 9 6 3 17 -24 45 -20 20 -34 40
-31 46 4 5 -1 9 -10 9 -10 0 -30 14 -47 32 -23 24 -31 29 -38 18 -7 -11 -11
-10 -24 3 -9 8 -16 23 -16 31 0 9 -8 16 -20 16 -22 0 -27 16 -8 22 21 7 -17
38 -46 38 -17 0 -26 6 -26 16 0 19 -24 44 -42 44 -8 0 -20 9 -28 20 -8 11 -21
20 -30 20 -9 0 -22 9 -30 20 -8 11 -22 20 -32 20 -10 0 -18 5 -18 10 0 6 -7
10 -16 10 -9 0 -29 14 -44 30 -15 17 -35 30 -44 30 -9 0 -16 5 -16 10 0 6 -9
10 -20 10 -11 0 -20 5 -20 10 0 6 -9 10 -19 10 -11 0 -21 6 -24 13 -3 9 -7 9
-20 -2 -15 -12 -17 -11 -17 3 0 25 -25 46 -54 46 -14 0 -26 5 -26 10 0 6 -9
10 -19 10 -11 0 -22 6 -25 13 -5 10 -7 10 -12 0 -9 -20 -24 -15 -24 7 0 13 -7
20 -20 20 -11 0 -20 5 -20 10 0 6 -22 10 -48 10 -36 0 -51 5 -62 20 -15 21
-50 28 -50 10 0 -5 -4 -10 -10 -10 -5 0 -10 9 -10 20 0 16 -7 20 -30 20 -16 0
-30 5 -30 10 0 6 -22 10 -49 10 -28 0 -53 5 -56 10 -3 6 -22 10 -41 10 -19 0
-34 5 -34 10 0 6 -18 10 -40 10 -22 0 -40 -4 -40 -10 0 -5 -4 -10 -10 -10 -5
0 -10 9 -10 20 0 17 -7 20 -49 20 -30 0 -51 -5 -54 -12 -2 -8 -8 -9 -13 -4 -5
5 -4 11 4 13 6 3 12 9 12 14 0 14 -157 11 -164 -3 -5 -10 -7 -10 -12 0 -7 15
-644 18 -644 2z m2040 -520 c0 -5 -4 -10 -10 -10 -5 0 -10 5 -10 10 0 6 5 10
10 10 6 0 10 -4 10 -10z m-3660 -60 c0 -5 -4 -10 -10 -10 -5 0 -10 5 -10 10 0
6 5 10 10 10 6 0 10 -4 10 -10z m4136 -428 c-4 -3 -13 3 -21 14 -22 28 -18 37
6 13 11 -11 18 -23 15 -27z m-1962 -13 c-3 -5 10 -9 30 -9 19 0 37 -6 40 -12
5 -10 7 -10 12 0 7 14 64 17 64 2 0 -6 27 -10 60 -10 33 0 60 -4 60 -10 0 -5
18 -10 40 -10 22 0 40 -4 40 -10 0 -5 14 -10 30 -10 17 0 30 -4 30 -10 0 -5
14 -10 30 -10 23 0 30 -4 30 -20 0 -11 5 -20 10 -20 6 0 10 5 10 10 0 18 35
11 50 -10 8 -12 26 -20 42 -20 15 0 28 -4 28 -10 0 -5 9 -10 20 -10 11 0 20
-4 20 -10 0 -5 8 -10 18 -10 10 0 24 -9 32 -20 8 -11 22 -20 32 -20 10 0 18
-4 18 -10 0 -5 8 -10 18 -10 10 0 24 -9 32 -20 8 -11 20 -20 28 -20 7 0 29
-16 48 -35 19 -20 40 -32 46 -29 7 4 8 2 4 -4 -4 -7 -2 -12 4 -12 16 0 120
-108 120 -125 0 -8 7 -15 16 -15 18 0 44 -23 44 -40 0 -6 18 -29 40 -50 22
-21 40 -43 40 -49 0 -6 14 -25 30 -43 17 -17 30 -37 30 -44 0 -8 5 -14 10 -14
6 0 10 -8 10 -18 0 -10 9 -24 20 -32 11 -8 20 -22 20 -31 0 -10 6 -20 13 -23
10 -5 10 -7 0 -12 -20 -9 -15 -24 7 -24 13 0 20 -7 20 -20 0 -11 5 -20 10 -20
6 0 10 -13 10 -30 0 -16 5 -30 10 -30 6 0 10 -9 10 -20 0 -11 5 -20 10 -20 6
0 10 -13 10 -29 0 -16 6 -32 13 -34 9 -4 8 -8 -3 -16 -12 -8 -11 -13 10 -31
21 -18 22 -23 10 -31 -11 -8 -12 -12 -2 -16 6 -2 12 -18 12 -34 0 -16 5 -29
10 -29 6 0 10 -22 10 -50 0 -27 5 -50 10 -50 14 0 12 -46 -2 -71 -10 -17 -10
-23 0 -26 6 -3 12 -13 12 -24 0 -10 5 -19 10 -19 6 0 10 -5 10 -11 0 -5 -4 -7
-10 -4 -5 3 -10 -1 -10 -9 0 -9 5 -16 10 -16 6 0 10 -30 10 -70 0 -40 -4 -70
-10 -70 -5 0 -10 -18 -10 -39 0 -22 5 -43 10 -46 6 -3 10 -24 10 -45 0 -21 -4
-42 -10 -45 -5 -3 -10 -46 -10 -95 0 -54 -4 -91 -11 -96 -8 -4 -7 -9 2 -16 11
-7 11 -11 2 -15 -8 -2 -13 -22 -13 -44 0 -21 -4 -39 -10 -39 -6 0 -10 -27 -10
-60 0 -33 -4 -60 -10 -60 -5 0 -10 -9 -10 -19 0 -11 -6 -22 -12 -24 -10 -4 -9
-8 2 -16 12 -8 11 -13 -10 -32 -17 -14 -21 -23 -12 -26 14 -5 17 -63 2 -63 -5
0 -10 -9 -10 -20 0 -11 -4 -20 -10 -20 -5 0 -10 -18 -10 -40 0 -22 -4 -40 -10
-40 -5 0 -10 -13 -10 -30 0 -16 -4 -30 -10 -30 -5 0 -10 -9 -10 -20 0 -11 -4
-20 -10 -20 -5 0 -10 -13 -10 -30 0 -16 -4 -30 -10 -30 -5 0 -10 -9 -10 -20 0
-11 -4 -20 -10 -20 -5 0 -10 -13 -10 -30 0 -16 -4 -30 -10 -30 -5 0 -10 -9
-10 -20 0 -11 -4 -20 -10 -20 -5 0 -10 -13 -10 -30 0 -16 -4 -30 -10 -30 -5 0
-10 -9 -10 -20 0 -11 -4 -20 -10 -20 -5 0 -10 -9 -10 -20 0 -11 -4 -20 -10
-20 -5 0 -10 -9 -10 -20 0 -11 -4 -20 -10 -20 -5 0 -10 -9 -10 -20 0 -13 -7
-20 -20 -20 -16 0 -20 -7 -20 -30 0 -16 -4 -30 -10 -30 -5 0 -10 -8 -10 -18 0
-10 -9 -24 -20 -32 -11 -8 -20 -21 -20 -30 0 -9 -9 -22 -20 -30 -11 -8 -20
-21 -20 -30 0 -9 -9 -22 -19 -30 -11 -7 -18 -17 -15 -21 2 -4 -7 -19 -21 -33
-14 -14 -25 -31 -25 -38 0 -8 -9 -20 -20 -28 -11 -8 -20 -21 -20 -28 0 -8 -13
-26 -30 -42 -16 -15 -30 -33 -32 -41 -4 -20 -25 -39 -42 -39 -9 0 -16 -8 -16
-20 0 -11 -4 -20 -10 -20 -5 0 -10 -7 -10 -15 0 -9 -31 -47 -70 -85 -38 -38
-70 -76 -70 -85 0 -8 -7 -15 -15 -15 -18 0 -85 -64 -85 -80 0 -14 -66 -80 -80
-80 -6 0 -46 -36 -90 -80 -44 -44 -84 -80 -90 -80 -6 0 -33 -22 -60 -50 -29
-30 -58 -50 -70 -50 -13 0 -24 -8 -27 -20 -3 -11 -12 -20 -20 -20 -8 0 -28
-13 -43 -30 -15 -16 -34 -30 -42 -30 -7 0 -20 -9 -28 -20 -8 -11 -21 -20 -30
-20 -9 0 -22 -9 -30 -20 -8 -11 -21 -20 -30 -20 -9 0 -22 -9 -30 -20 -8 -11
-21 -20 -30 -20 -9 0 -22 -9 -30 -20 -8 -11 -22 -20 -32 -20 -10 0 -18 -4 -18
-10 0 -5 -13 -10 -28 -10 -16 0 -34 -8 -42 -20 -8 -11 -22 -20 -32 -20 -10 0
-18 -4 -18 -10 0 -5 -13 -10 -30 -10 -16 0 -30 -4 -30 -10 0 -5 -8 -10 -18
-10 -10 0 -24 -9 -32 -20 -8 -11 -22 -20 -32 -20 -10 0 -18 -4 -18 -10 0 -5
-13 -10 -30 -10 -16 0 -30 -4 -30 -10 0 -5 -9 -10 -20 -10 -11 0 -20 -4 -20
-10 0 -5 -9 -10 -20 -10 -11 0 -20 -4 -20 -10 0 -5 -13 -10 -30 -10 -16 0 -30
-4 -30 -10 0 -5 -13 -10 -30 -10 -16 0 -30 -4 -30 -10 0 -5 -18 -10 -40 -10
-22 0 -40 -4 -40 -10 0 -5 -9 -10 -20 -10 -11 0 -20 -4 -20 -10 0 -5 -13 -10
-30 -10 -16 0 -30 -4 -30 -10 0 -5 -22 -10 -50 -10 -27 0 -50 -4 -50 -10 0 -6
-27 -10 -60 -10 -33 0 -60 -4 -60 -10 0 -5 -18 -10 -40 -10 -22 0 -40 -4 -40
-10 0 -6 -26 -10 -59 -10 -33 0 -63 -4 -66 -10 -10 -16 -592 -13 -598 3 -4 9
-8 8 -16 -3 -9 -12 -13 -12 -19 -2 -5 7 -29 13 -55 14 -26 0 -47 4 -47 9 0 5
-9 9 -19 9 -11 0 -22 6 -24 13 -4 9 -8 8 -17 -3 -9 -11 -13 -12 -17 -2 -2 6
-18 12 -34 12 -16 0 -29 5 -29 10 0 6 -13 10 -30 10 -16 0 -30 5 -30 10 0 6
-13 10 -30 10 -16 0 -30 5 -30 10 0 6 -7 10 -16 10 -9 0 -25 10 -36 22 -16 19
-21 20 -29 8 -8 -11 -12 -12 -16 -2 -2 6 -13 12 -24 12 -10 0 -19 5 -19 10 0
6 -6 10 -14 10 -7 0 -26 12 -42 28 -16 15 -40 29 -54 31 -13 1 -32 12 -41 22
-9 10 -22 19 -28 19 -7 0 -30 18 -51 40 -21 22 -43 40 -50 40 -17 0 -60 47
-60 65 0 9 -4 13 -10 10 -5 -3 -10 -1 -10 5 0 15 -25 40 -40 40 -15 0 -40 25
-40 40 0 14 -21 34 -39 38 -7 1 -20 10 -29 18 -12 13 -13 17 -2 24 11 7 10 11
-3 24 -8 9 -23 16 -31 16 -9 0 -16 7 -16 16 0 9 -13 29 -30 44 -18 17 -30 38
-30 54 0 19 -5 26 -20 26 -13 0 -20 7 -20 20 0 11 -4 20 -10 20 -5 0 -10 9
-10 20 0 11 -4 20 -10 20 -5 0 -10 14 -10 31 0 17 -4 28 -10 24 -5 -3 -10 1
-10 9 0 9 -4 16 -10 16 -5 0 -10 14 -10 30 0 17 -4 30 -10 30 -5 0 -10 14 -10
30 0 17 -4 30 -10 30 -5 0 -10 14 -10 30 0 17 -4 30 -10 30 -5 0 -10 14 -10
30 0 17 -4 30 -10 30 -5 0 -10 21 -10 46 0 25 -4 43 -9 40 -4 -3 -9 29 -10 72
-1 42 -6 79 -12 80 -14 5 -11 59 4 66 10 5 10 7 0 12 -16 7 -19 324 -3 324 6
0 10 9 10 20 0 11 -4 20 -10 20 -5 0 -10 14 -10 30 0 17 5 30 10 30 6 0 10 32
10 76 0 47 4 73 10 69 6 -4 10 17 10 54 0 34 4 61 10 61 6 0 10 9 10 20 0 11
5 20 10 20 14 0 12 37 -2 44 -10 5 -10 7 0 12 6 3 12 19 12 35 0 16 5 29 10
29 6 0 10 18 10 40 0 22 5 40 10 40 6 0 10 14 10 31 0 17 4 28 10 24 6 -4 10
8 10 29 0 20 5 36 10 36 6 0 10 14 10 30 0 17 5 30 10 30 6 0 10 14 10 30 0
17 5 30 10 30 6 0 10 13 10 28 0 16 8 34 20 42 12 8 20 26 20 42 0 15 5 28 10
28 6 0 10 9 10 20 0 11 5 20 10 20 6 0 10 14 10 30 0 17 5 30 10 30 6 0 10 6
10 13 0 7 9 23 20 35 11 12 20 30 20 40 0 10 9 28 20 40 11 12 20 28 20 37 0
8 5 15 10 15 6 0 10 9 10 20 0 11 5 20 10 20 6 0 10 8 10 18 0 10 9 24 20 32
11 8 20 22 20 32 0 10 5 18 10 18 6 0 10 8 10 18 0 10 9 24 20 32 11 8 20 21
20 30 0 9 9 22 20 30 11 8 20 22 20 32 0 21 10 23 30 6 12 -11 12 -10 1 5 -12
15 -11 20 8 36 11 10 21 24 21 30 0 7 7 19 15 27 8 9 15 12 15 8 0 -3 7 -1 15
6 8 7 15 23 15 36 0 17 6 24 20 24 12 0 20 7 20 16 0 9 14 29 30 44 17 15 30
33 30 39 0 7 36 47 80 91 44 44 80 84 80 90 0 17 28 42 40 35 6 -3 7 1 4 9 -4
11 0 16 10 16 21 0 106 84 106 105 0 8 7 15 15 15 9 0 47 32 85 70 38 39 74
70 80 70 6 0 8 5 4 12 -4 6 -3 8 4 4 6 -3 17 1 25 9 9 8 23 15 31 15 9 0 16 8
16 20 0 13 7 20 20 20 11 0 20 5 20 10 0 6 9 10 20 10 13 0 20 7 20 20 0 12 7
20 16 20 9 0 29 14 45 31 16 17 33 28 39 24 5 -3 13 1 16 9 3 9 13 16 21 16 8
0 28 14 43 30 17 18 38 30 54 30 19 0 26 5 26 20 0 13 7 20 20 20 11 0 20 5
20 10 0 6 9 10 20 10 11 0 20 5 20 10 0 6 8 10 18 10 10 0 24 9 32 20 8 11 22
20 32 20 10 0 18 5 18 10 0 6 9 10 20 10 11 0 20 5 20 10 0 6 9 10 20 10 11 0
20 5 20 10 0 6 9 10 20 10 11 0 20 5 20 10 0 6 9 10 19 10 11 0 21 6 24 13 3
9 7 9 20 -2 15 -12 17 -11 17 8 0 14 6 21 20 21 11 0 20 5 20 10 0 6 14 10 30
10 17 0 30 5 30 10 0 6 9 10 20 10 11 0 20 5 20 10 0 6 13 10 29 10 16 0 32 6
34 13 4 9 8 8 16 -3 8 -12 13 -11 29 8 11 12 31 22 46 22 14 0 26 5 26 10 0 6
14 10 30 10 17 0 30 5 30 10 0 6 18 10 39 10 22 0 42 5 44 13 4 9 8 8 16 -3 8
-12 13 -11 31 10 18 21 23 22 31 10 8 -11 12 -12 16 -2 2 6 18 12 34 12 16 0
29 5 29 10 0 6 18 10 40 10 22 0 40 5 40 10 0 6 33 10 80 10 47 0 80 4 80 10
0 6 33 10 80 10 49 0 80 4 80 10 0 7 55 10 160 9 93 0 158 -5 154 -10z m2286
-519 c0 -5 -4 -10 -10 -10 -5 0 -10 5 -10 10 0 6 5 10 10 10 6 0 10 -4 10 -10z
m-5820 -260 c0 -5 -4 -10 -10 -10 -5 0 -10 5 -10 10 0 6 5 10 10 10 6 0 10 -4
10 -10z m-400 -640 c0 -5 -4 -10 -10 -10 -5 0 -10 5 -10 10 0 6 5 10 10 10 6
0 10 -4 10 -10z m-60 -120 c0 -5 -4 -10 -10 -10 -5 0 -10 5 -10 10 0 6 5 10
10 10 6 0 10 -4 10 -10z m-20 -40 c0 -5 -7 -10 -16 -10 -8 0 -12 5 -9 10 3 6
10 10 16 10 5 0 9 -4 9 -10z m5980 -2120 c0 -5 -4 -10 -10 -10 -5 0 -10 5 -10
10 0 6 5 10 10 10 6 0 10 -4 10 -10z m-100 -159 c0 -6 -4 -13 -10 -16 -5 -3
-10 1 -10 9 0 9 5 16 10 16 6 0 10 -4 10 -9z m-1120 -1201 c0 -5 -4 -10 -10
-10 -5 0 -10 5 -10 10 0 6 5 10 10 10 6 0 10 -4 10 -10z m-760 -460 c0 -5 -4
-10 -10 -10 -5 0 -10 5 -10 10 0 6 5 10 10 10 6 0 10 -4 10 -10z m-4780 -20
c0 -5 -4 -10 -10 -10 -5 0 -10 5 -10 10 0 6 5 10 10 10 6 0 10 -4 10 -10z
m760 -800 c0 -5 -4 -10 -10 -10 -5 0 -10 5 -10 10 0 6 5 10 10 10 6 0 10 -4
10 -10z m-1600 -100 c0 -5 -4 -10 -10 -10 -5 0 -10 5 -10 10 0 6 5 10 10 10 6
0 10 -4 10 -10z"/>
<path d="M8910 4550 c0 -6 -40 -10 -100 -10 -93 0 -100 -1 -100 -20 0 -11 -4
-20 -10 -20 -5 0 -10 5 -10 10 0 6 -13 10 -30 10 -27 0 -35 -8 -31 -32 2 -13
-37 -9 -43 5 -5 10 -7 10 -12 0 -3 -7 -17 -13 -31 -13 -14 0 -35 -10 -46 -22
-13 -16 -21 -19 -24 -10 -5 14 -43 16 -43 2 0 -5 -12 -10 -26 -10 -16 0 -37
-12 -54 -30 -21 -23 -37 -30 -64 -30 -29 0 -36 -4 -36 -20 0 -11 -4 -20 -10
-20 -5 0 -10 5 -10 10 0 6 -4 10 -10 10 -5 0 -10 -9 -10 -20 0 -16 -7 -20 -30
-20 -16 0 -30 -4 -30 -10 0 -5 -12 -10 -26 -10 -29 0 -54 -21 -54 -44 0 -19
-17 -21 -22 -4 -6 16 -58 -35 -58 -57 0 -18 -17 -20 -22 -3 -6 17 -38 -14 -38
-36 0 -10 -9 -16 -25 -16 -28 0 -135 -99 -135 -125 0 -17 -16 -21 -22 -4 -4
12 -98 -74 -98 -91 0 -6 -23 -33 -50 -60 -30 -29 -51 -59 -52 -74 -1 -13 -6
-22 -10 -20 -4 3 -8 -2 -8 -10 0 -9 -7 -16 -16 -16 -22 0 -53 -32 -36 -38 6
-2 12 -8 12 -13 0 -6 -4 -8 -9 -5 -12 8 -71 -48 -71 -68 0 -9 -4 -16 -10 -16
-5 0 -10 -7 -10 -16 0 -9 -10 -26 -22 -37 -16 -13 -19 -21 -10 -24 19 -7 14
-23 -8 -23 -11 0 -20 -4 -20 -10 0 -5 5 -10 10 -10 6 0 10 -4 10 -10 0 -5 -9
-10 -20 -10 -13 0 -20 -7 -20 -20 0 -11 -4 -20 -10 -20 -5 0 -10 -9 -10 -19 0
-11 -6 -22 -12 -25 -10 -5 -10 -7 0 -12 19 -9 14 -24 -8 -24 -13 0 -20 -7 -20
-20 0 -11 -4 -20 -10 -20 -5 0 -10 -21 -10 -46 0 -36 -5 -51 -22 -66 -14 -12
-18 -22 -12 -26 11 -7 15 -41 5 -40 -21 2 -31 -5 -31 -21 0 -11 -4 -23 -10
-26 -5 -3 -10 -35 -10 -71 0 -36 -4 -64 -10 -64 -5 0 -10 -22 -10 -50 0 -27
-4 -50 -10 -50 -5 0 -10 -9 -10 -20 0 -11 5 -20 10 -20 6 0 10 -21 10 -47 0
-35 -3 -44 -10 -33 -8 13 -10 12 -10 -2 0 -10 -4 -18 -10 -18 -6 0 -10 -66
-10 -178 0 -165 1 -179 20 -192 14 -10 16 -16 7 -22 -9 -6 -9 -8 1 -8 7 0 12
-13 12 -31 0 -17 -4 -28 -10 -24 -6 4 -10 -8 -10 -29 0 -20 5 -36 10 -36 6 0
10 -18 10 -40 0 -22 5 -40 10 -40 6 0 10 -30 10 -70 0 -40 4 -70 10 -70 6 0
10 -13 10 -30 0 -23 4 -30 20 -30 17 0 20 -7 20 -50 0 -27 5 -50 10 -50 6 0
10 -18 10 -41 0 -24 4 -38 10 -34 6 4 10 -5 10 -19 0 -19 5 -26 20 -26 22 0
27 -15 8 -24 -10 -5 -10 -7 0 -12 6 -3 12 -14 12 -25 0 -12 7 -19 20 -19 22 0
27 -15 8 -24 -10 -5 -10 -7 0 -12 6 -3 12 -14 12 -25 0 -12 7 -19 20 -19 22 0
27 -15 8 -24 -10 -5 -10 -7 0 -12 6 -3 12 -12 12 -20 0 -9 4 -13 8 -10 4 2 9
-7 10 -20 2 -28 43 -74 67 -74 9 0 15 -9 15 -26 0 -29 21 -54 44 -54 19 0 21
-17 4 -23 -8 -2 -1 -15 20 -34 17 -17 32 -36 32 -43 0 -7 8 -9 20 -5 21 7 28
-10 8 -18 -10 -4 -10 -8 2 -16 8 -5 18 -7 24 -4 5 3 6 1 2 -5 -8 -14 108 -132
131 -132 15 0 16 -2 3 -10 -13 -8 -12 -10 3 -10 10 0 21 -8 24 -17 9 -24 29
-43 43 -43 7 0 26 -15 43 -32 19 -21 32 -28 34 -20 6 17 23 15 23 -4 0 -23 25
-44 54 -44 17 0 26 -6 26 -15 0 -23 46 -65 71 -65 12 0 31 -10 42 -22 13 -16
21 -19 24 -10 7 19 23 14 23 -8 0 -11 7 -20 16 -20 9 0 12 5 8 12 -4 7 -3 8 4
4 7 -4 12 -14 12 -22 0 -8 9 -14 20 -14 11 0 20 -4 20 -10 0 -5 9 -10 19 -10
11 0 22 -6 25 -12 5 -11 7 -11 12 0 9 19 24 14 24 -8 0 -13 7 -20 20 -20 11 0
20 -4 20 -10 0 -5 14 -10 30 -10 17 0 30 -4 30 -10 0 -5 13 -10 29 -10 16 0
32 -6 35 -12 5 -11 7 -11 12 0 9 19 24 14 24 -8 0 -17 7 -20 40 -20 22 0 40
-4 40 -10 0 -6 29 -10 66 -10 36 0 63 -4 60 -8 -3 -5 16 -9 42 -11 26 -1 49
-6 50 -12 5 -13 60 -11 64 3 5 14 51 4 72 -17 12 -12 47 -15 189 -15 151 0
176 2 181 16 4 9 13 14 22 10 8 -3 12 -2 9 4 -3 6 5 10 19 10 14 0 26 -4 26
-10 0 -5 14 -10 30 -10 17 0 30 5 30 10 0 6 13 10 29 10 16 0 32 6 34 13 4 9
8 8 17 -3 9 -11 13 -12 17 -2 2 6 13 12 23 12 10 0 21 6 24 13 5 9 7 9 12 0 7
-15 64 -18 64 -3 0 6 14 10 30 10 23 0 30 4 30 20 0 11 5 20 10 20 6 0 10 -4
10 -10 0 -5 9 -10 20 -10 11 0 20 5 20 10 0 6 9 10 20 10 11 0 20 5 20 10 0 6
14 10 30 10 23 0 30 4 30 20 0 11 5 20 10 20 6 0 10 -4 10 -10 0 -20 31 -10
62 20 22 21 41 30 64 30 19 0 34 5 34 10 0 6 7 10 16 10 9 0 29 14 44 30 15
17 35 30 44 30 9 0 16 6 16 14 0 8 5 18 12 22 7 4 8 3 4 -4 -13 -21 19 -13 34
8 8 11 21 20 30 20 9 0 22 9 30 20 8 11 20 20 27 20 19 0 74 61 66 74 -4 6 1
5 10 -3 10 -8 19 -12 20 -10 1 2 9 13 17 23 10 13 10 17 3 12 -8 -4 -13 -1
-13 8 0 9 9 16 20 16 11 0 20 5 20 10 0 6 7 10 16 10 18 0 44 23 44 40 0 15
25 40 40 40 17 0 40 26 40 44 0 9 5 16 10 16 6 0 10 9 10 20 0 11 7 20 15 20
18 0 125 104 125 121 0 6 10 21 23 32 15 13 18 21 10 24 -18 7 -16 23 3 23 20
0 44 24 44 43 0 9 4 17 10 19 5 2 11 15 12 31 2 25 18 40 18 17 0 -5 5 -10 10
-10 6 0 10 9 10 20 0 11 5 20 10 20 6 0 10 14 10 30 0 17 5 30 10 30 6 0 10
14 10 30 0 23 4 30 20 30 13 0 20 7 20 20 0 11 5 20 10 20 6 0 10 14 10 30 0
17 5 30 10 30 6 0 10 13 10 29 0 16 6 32 13 35 10 5 10 7 0 12 -20 9 -15 24 7
24 22 0 29 35 8 43 -7 2 -10 8 -6 12 4 4 14 2 23 -5 13 -11 15 -6 15 39 0 28
5 51 10 51 6 0 10 14 10 30 0 17 5 30 10 30 6 0 10 9 10 20 0 11 -4 20 -10 20
-5 0 -10 9 -10 20 0 13 7 20 20 20 17 0 20 7 20 50 0 28 -4 50 -10 50 -5 0
-10 5 -10 10 0 6 9 10 20 10 20 0 21 5 20 300 -1 165 -4 298 -9 296 -4 -3 -13
0 -21 5 -12 8 -12 12 -2 16 20 8 15 77 -8 93 -21 15 -28 50 -10 50 6 0 10 9
10 20 0 11 -4 20 -10 20 -5 0 -10 14 -10 30 0 17 -4 30 -10 30 -5 0 -10 18
-10 40 0 22 -4 40 -10 40 -5 0 -10 14 -10 30 0 23 -4 30 -20 30 -22 0 -27 16
-7 23 8 3 5 11 -10 24 -17 15 -23 31 -23 60 0 25 -7 47 -20 61 -11 12 -20 28
-20 37 0 8 -4 15 -10 15 -5 0 -10 9 -10 20 0 11 -4 20 -10 20 -5 0 -10 9 -10
20 0 11 -4 20 -10 20 -5 0 -10 7 -10 16 0 9 -13 29 -30 44 -16 15 -30 35 -30
44 0 15 -12 21 -34 17 -5 -1 -4 5 4 14 11 13 9 18 -9 34 -11 10 -21 24 -21 30
0 17 -46 61 -65 61 -8 0 -15 5 -15 10 0 6 5 10 10 10 6 0 10 5 10 10 0 6 -7
10 -15 10 -9 0 -19 8 -22 17 -10 26 -70 83 -88 83 -18 0 -20 17 -3 22 9 3 7
10 -6 24 -14 13 -21 15 -24 6 -5 -17 -22 -15 -22 3 0 18 -64 85 -81 85 -7 0
-10 3 -6 6 7 8 -59 74 -74 74 -6 0 -21 10 -32 23 -13 15 -21 18 -24 10 -7 -18
-23 -16 -23 3 0 23 -25 44 -54 44 -17 0 -26 6 -26 16 0 21 -27 47 -35 34 -8
-13 -25 -13 -25 1 0 5 5 7 10 4 6 -3 10 1 10 9 0 11 -9 16 -30 16 -16 0 -30 5
-30 10 0 6 -9 10 -20 10 -11 0 -20 5 -20 10 0 6 -8 10 -18 10 -10 0 -24 9 -32
20 -8 12 -26 20 -42 20 -15 0 -28 5 -28 10 0 6 -9 10 -19 10 -11 0 -22 6 -25
13 -5 10 -7 10 -12 0 -9 -20 -24 -15 -24 7 0 13 -7 20 -19 20 -11 0 -23 5 -26
10 -3 6 -26 10 -51 10 -24 0 -44 5 -44 10 0 6 -9 10 -19 10 -11 0 -22 6 -25
13 -5 10 -7 10 -12 0 -9 -19 -38 -15 -54 7 -8 12 -26 20 -42 20 -15 0 -28 5
-28 10 0 6 -37 10 -90 10 -53 0 -90 4 -90 10 0 6 -90 10 -250 10 -160 0 -250
-4 -250 -10z m-1480 -3140 c0 -5 -4 -10 -10 -10 -5 0 -10 5 -10 10 0 6 5 10
10 10 6 0 10 -4 10 -10z m3180 -320 c0 -5 -4 -10 -10 -10 -5 0 -10 5 -10 10 0
6 5 10 10 10 6 0 10 -4 10 -10z m-80 -80 c0 -5 -4 -10 -10 -10 -5 0 -10 5 -10
10 0 6 5 10 10 10 6 0 10 -4 10 -10z m-2460 -240 c0 -5 -4 -10 -10 -10 -5 0
-10 5 -10 10 0 6 5 10 10 10 6 0 10 -4 10 -10z"/>
</g>
</svg>
